<?xml version="1.0" encoding="utf-8"?>
<!-- Generator: Adobe Illustrator 26.5.0, SVG Export Plug-In . SVG Version: 6.00 Build 0)  -->
<svg version="1.1" id="Layer_1" xmlns="http://www.w3.org/2000/svg" xmlns:xlink="http://www.w3.org/1999/xlink" x="0px" y="0px"
	 viewBox="0 0 300 300" style="enable-background:new 0 0 300 300;" xml:space="preserve">
<style type="text/css">
	.st0{fill-rule:evenodd;clip-rule:evenodd;}
</style>
<path class="st0" d="M150,25C81,25,25,81,25,150s56,125,125,125s125-56,125-125S219,25,150,25L150,25z M150,41.6
	c60,0,108.4,48.5,108.4,108.4S210,258.3,150,258.3S41.7,210,41.7,150C41.7,90.1,90,41.6,150,41.6z M99.5,73.5
	c-9.3,6.1,0,20.1,9.2,13.9C121,79.3,135.3,75,150,75c41.5,0,75,33.5,75,75s-33.5,75-75,75s-75-33.5-75-75l0,0
	c0-14.7,4.4-29,12.5-41.3c6.1-9.3-7.8-18.5-13.9-9.2c-9.9,15-15.2,32.5-15.2,50.5l0,0c0,50.5,41.1,91.7,91.7,91.7
	s91.7-41.2,91.7-91.7S200.6,58.3,150,58.3C132,58.3,114.5,63.6,99.5,73.5L99.5,73.5z M185.2,118c-2.2,0-4.2,1-5.8,2.5l-41.2,41.3
	l-17.7-17.7c-7.9-7.9-19.7,4-11.8,11.8l23.6,23.6c3.2,3.3,8.5,3.3,11.8,0l47.1-47.1C196.8,127,192.9,117.8,185.2,118L185.2,118z"/>
</svg>
