<?xml version="1.0" encoding="utf-8"?>
<!-- Generator: Adobe Illustrator 26.5.0, SVG Export Plug-In . SVG Version: 6.00 Build 0)  -->
<svg version="1.1" id="Layer_1" xmlns="http://www.w3.org/2000/svg" xmlns:xlink="http://www.w3.org/1999/xlink" x="0px" y="0px"
	 viewBox="0 0 300 300" style="enable-background:new 0 0 300 300;" xml:space="preserve">
<style type="text/css">
	.st0{fill-rule:evenodd;clip-rule:evenodd;}
</style>
<path class="st0" d="M150,24.9c-8.2,0-15.2,5.7-17.2,13.3C114.5,41,97.6,48.3,83.2,58.8c-6.8-3.9-15.8-3-21.6,2.8
	c-5.8,5.8-6.7,14.7-2.8,21.6c-10.5,14.3-17.8,31.2-20.6,49.6c-7.6,2-13.3,9-13.3,17.2c0,8.2,5.7,15.2,13.3,17.2
	c2.8,18.4,10.1,35.3,20.6,49.6c-3.9,6.8-3,15.8,2.8,21.6c5.8,5.8,14.7,6.7,21.6,2.8c14.3,10.5,31.2,17.8,49.6,20.6
	c2,7.6,9,13.3,17.2,13.3c8.2,0,15.2-5.7,17.2-13.3c18.3-2.8,35.3-10.1,49.6-20.6c6.8,3.9,15.8,3,21.6-2.8c5.8-5.8,6.7-14.7,2.8-21.6
	c10.5-14.3,17.8-31.2,20.6-49.6c7.6-2,13.3-9,13.3-17.2c0-8.2-5.7-15.2-13.3-17.2c-2.8-18.4-10.1-35.3-20.6-49.6
	c3.9-6.8,3-15.8-2.8-21.6l0,0c-5.8-5.8-14.7-6.7-21.6-2.8c-14.3-10.5-31.2-17.8-49.6-20.6C165.2,30.6,158.2,24.9,150,24.9L150,24.9z
	 M150,36.8c3.4,0,6,2.6,6,6c0,3.4-2.6,6-6,6s-6-2.6-6-6C144.1,39.4,146.7,36.8,150,36.8z M133.7,50.1c2.8,6.2,9,10.6,16.2,10.6
	c7.2,0,13.5-4.4,16.3-10.6c15.8,2.6,30.4,8.7,42.9,17.7c-2.4,6.4-1.1,13.9,4,19c5.1,5.1,12.6,6.4,19,4c9,12.5,15.2,27,17.7,42.9
	c-6.2,2.8-10.6,9.1-10.6,16.3c0,7.2,4.4,13.5,10.6,16.3c-2.6,15.8-8.8,30.4-17.8,42.9c-6.4-2.4-13.9-1.1-19,4
	c-5.1,5.1-6.4,12.6-4,19c-12.5,9-27,15.2-42.8,17.8c-2.8-6.2-9.1-10.6-16.3-10.6s-13.4,4.3-16.2,10.6c-15.8-2.6-30.4-8.7-42.9-17.7
	c2.4-6.4,1.1-13.9-4-19c-5.1-5.1-12.6-6.4-19-4c-9-12.5-15.2-27-17.7-42.9c6.2-2.8,10.6-9.1,10.6-16.3c0-7.2-4.3-13.5-10.6-16.3
	c2.6-15.8,8.7-30.4,17.7-42.9c6.4,2.4,13.9,1.1,19-4c5.1-5.1,6.4-12.6,4-19C103.3,58.8,117.9,52.7,133.7,50.1L133.7,50.1z
	 M225.8,68.2c1.5,0,3,0.6,4.2,1.8l0,0c2.4,2.4,2.3,6,0,8.4c-2.4,2.4-6,2.4-8.4,0s-2.4-6.1,0-8.4C222.8,68.8,224.3,68.2,225.8,68.2
	L225.8,68.2z M74.2,68.2c1.5,0,3,0.6,4.2,1.8c2.4,2.4,2.4,6,0,8.4c-2.4,2.4-6.1,2.4-8.4,0c-2.4-2.4-2.4-6,0-8.4
	C71.2,68.8,72.7,68.2,74.2,68.2L74.2,68.2z M150,72.6c-3.3,0-6,2.7-6,6c0,3.3,2.7,6,6,6s6-2.7,6-6C156,75.2,153.3,72.6,150,72.6z
	 M99.4,93.5c-1.5,0-3,0.7-4.1,1.7c-2.3,2.3-2.3,6.1,0,8.4c2.3,2.3,6.1,2.3,8.4,0c2.3-2.3,2.3-6.1,0-8.4
	C102.6,94.1,101,93.5,99.4,93.5z M200.6,93.5c-1.6,0-3.2,0.6-4.3,1.7c-2.3,2.3-2.3,6.1,0,8.4c2.3,2.3,6.1,2.3,8.4,0
	c2.3-2.3,2.3-6.1,0-8.4C203.7,94.1,202.2,93.5,200.6,93.5z M150,96.4c-3.3,0-6,2.7-6,6c0,3.3,2.7,6,6,6s6-2.7,6-6
	C156,99,153.3,96.4,150,96.4z M116.2,110.3c-1.5,0-3,0.7-4.1,1.7c-2.3,2.3-2.3,6.1,0,8.4s6.1,2.3,8.4,0c2.3-2.3,2.3-6.1,0-8.4
	C119.4,110.9,117.9,110.3,116.2,110.3L116.2,110.3z M183.8,110.3c-1.6,0-3.2,0.6-4.3,1.7c-1.1,1.1-1.7,2.7-1.7,4.2
	c0,1.6,0.6,3.1,1.7,4.2c2.3,2.3,6.1,2.3,8.4,0c1.1-1.1,1.7-2.7,1.7-4.2c0-1.6-0.6-3.1-1.7-4.2C186.8,111,185.3,110.4,183.8,110.3
	L183.8,110.3z M150,120.2c-16.4,0-29.8,13.4-29.8,29.8s13.4,29.8,29.8,29.8s29.8-13.4,29.8-29.8S166.4,120.2,150,120.2L150,120.2z
	 M150,132.1c10,0,17.9,7.9,17.9,17.9c0,10-7.9,17.9-17.9,17.9s-17.9-7.9-17.9-17.9C132.2,140,140.1,132.1,150,132.1L150,132.1z
	 M78.6,144c-3.3,0-6,2.7-6,6s2.7,6,6,6s6-2.7,6-6S81.8,144,78.6,144z M102.4,144c-3.3,0-6,2.7-6,6s2.7,6,6,6c3.3,0,6-2.7,6-6
	S105.7,144,102.4,144z M197.6,144c-3.3,0-6,2.7-6,6s2.7,6,6,6c3.3,0,6-2.7,6-6S201,144,197.6,144z M221.5,144c-3.3,0-6,2.7-6,6
	s2.7,6,6,6s6-2.7,6-6S224.7,144,221.5,144z M42.9,144c3.4,0,6,2.6,6,6c0,3.4-2.6,6-6,6s-6-2.6-6-6C36.9,146.6,39.5,144,42.9,144z
	 M257.2,144c3.4,0,6,2.6,6,6c0,3.4-2.6,6-6,6c-3.4,0-6-2.6-6-6C251.2,146.6,253.8,144,257.2,144z M116.2,177.7c-1.5,0-3,0.7-4.1,1.7
	c-2.3,2.3-2.3,6.1,0,8.4c2.3,2.3,6.1,2.3,8.4,0c2.3-2.3,2.3-6.1,0-8.4C119.4,178.3,117.9,177.7,116.2,177.7L116.2,177.7z
	 M183.8,177.7c-1.6,0-3.2,0.6-4.3,1.7c-2.3,2.3-2.3,6.1,0,8.4c2.3,2.3,6.1,2.3,8.4,0c2.3-2.3,2.3-6.1,0-8.4
	C186.8,178.3,185.3,177.7,183.8,177.7L183.8,177.7z M150,191.7c-3.3,0-6,2.7-6,6c0,3.3,2.7,6,6,6s6-2.7,6-6
	C155.9,194.3,153.3,191.7,150,191.7z M99.4,194.5c-1.5,0-3,0.7-4.1,1.7c-2.3,2.3-2.3,6.1,0,8.4c2.3,2.3,6.1,2.3,8.4,0
	c2.3-2.3,2.3-6.1,0-8.4C102.6,195.1,101,194.5,99.4,194.5z M200.6,194.5c-1.6,0-3.2,0.6-4.3,1.7c-2.3,2.3-2.3,6.1,0,8.4
	c2.3,2.3,6.1,2.3,8.4,0c2.3-2.3,2.3-6.1,0-8.4C203.7,195.2,202.2,194.6,200.6,194.5z M150,215.4c-3.3,0-6,2.7-6,6s2.7,6,6,6
	s6-2.7,6-6S153.3,215.4,150,215.4z M225.8,219.8c1.5,0,3,0.6,4.2,1.8c2.4,2.4,2.4,6.1,0,8.4c-2.4,2.4-6,2.4-8.4,0
	c-2.4-2.4-2.4-6.1,0-8.4C222.7,220.3,224.3,219.8,225.8,219.8z M74.2,219.8c1.5,0,3,0.6,4.2,1.8c2.4,2.4,2.3,6,0,8.4
	c-2.4,2.4-6,2.4-8.4,0c-2.4-2.4-2.4-6,0-8.4C71.2,220.4,72.7,219.8,74.2,219.8L74.2,219.8z M150,251.2c3.4,0,6,2.6,6,5.9
	c0,3.4-2.6,6-6,6s-6-2.6-6-6C144.1,253.8,146.7,251.2,150,251.2z"/>
</svg>
