<?xml version="1.0" encoding="utf-8"?>
<!-- Generator: Adobe Illustrator 26.5.0, SVG Export Plug-In . SVG Version: 6.00 Build 0)  -->
<svg version="1.1" id="Layer_1" xmlns="http://www.w3.org/2000/svg" xmlns:xlink="http://www.w3.org/1999/xlink" x="0px" y="0px"
	 viewBox="0 0 300 300" style="enable-background:new 0 0 300 300;" xml:space="preserve">
<style type="text/css">
	.st0{fill-rule:evenodd;clip-rule:evenodd;}
</style>
<g>
	<path class="st0" d="M253.3,63c0-7.5-5.1-14-12.3-15.8l-87-21.8c-2.6-0.7-5.3-0.7-7.9,0l-87,21.8c-7.3,1.8-12.3,8.3-12.3,15.8
		v108.7c0,31.3,16.4,54.6,36.6,71.1c27.8,22.6,62.6,31.6,62.6,31.6c2.7,0.7,5.5,0.7,8.2,0c0,0,34.8-9,62.6-31.6
		c20.2-16.5,36.6-39.8,36.6-71.1L253.3,63z M242.4,63v108.7c0,27.6-14.7,48.1-32.6,62.7c-25.9,21.1-58.4,29.5-58.4,29.5
		c-0.9,0.2-1.8,0.2-2.7,0c0,0-32.5-8.4-58.4-29.5c-17.9-14.6-32.6-35.1-32.6-62.7V63c0-2.5,1.7-4.7,4.1-5.3l87-21.8
		c0.9-0.2,1.8-0.2,2.7,0l86.9,21.8C240.7,58.4,242.4,60.6,242.4,63L242.4,63z M231.5,71.6c0-2.5-1.7-4.7-4.1-5.3l-76.1-19
		c-0.9-0.2-1.8-0.2-2.7,0l-76.1,19c-2.4,0.6-4.1,2.8-4.1,5.3v100.2c0,24,13.1,41.6,28.6,54.3c19.7,16,43.3,24.1,51.3,26.6
		c1,0.3,2.1,0.3,3.2,0c8-2.4,31.7-10.6,51.3-26.6c15.5-12.6,28.6-30.3,28.6-54.3L231.5,71.6L231.5,71.6z M220.7,75.8v96
		c0,20.4-11.5,35.1-24.6,45.8c-17,13.9-37.4,21.4-46,24.1c-8.7-2.7-29-10.2-46.1-24.1c-13.1-10.7-24.6-25.5-24.6-45.8v-96L150,58.1
		L220.7,75.8z"/>
	<path class="st0" d="M105.8,161.5l21.8,21.8c6.4,6.4,16.7,6.4,23.1,0l43.5-43.5c6.4-6.3,6.4-16.7,0-23.1c-6.4-6.4-16.7-6.4-23.1,0
		l-32,32l-10.2-10.2c-6.4-6.4-16.7-6.4-23.1,0C99.5,144.8,99.5,155.2,105.8,161.5z M113.5,153.9c-2.1-2.1-2.1-5.5,0-7.7
		c2.1-2.1,5.5-2.1,7.7,0l14.1,14.1c2.1,2.1,5.5,2.1,7.7,0l35.8-35.8c2.1-2.1,5.5-2.1,7.7,0c2.1,2.1,2.1,5.5,0,7.7L143,175.6
		c-2.1,2.1-5.5,2.1-7.7,0L113.5,153.9z"/>
</g>
</svg>
