<?xml version="1.0" encoding="utf-8"?>
<!-- Generator: Adobe Illustrator 26.5.0, SVG Export Plug-In . SVG Version: 6.00 Build 0)  -->
<svg version="1.1" id="Layer_1" xmlns="http://www.w3.org/2000/svg" xmlns:xlink="http://www.w3.org/1999/xlink" x="0px" y="0px"
	 viewBox="0 0 300 300" style="enable-background:new 0 0 300 300;" xml:space="preserve">
<style type="text/css">
	.st0{fill-rule:evenodd;clip-rule:evenodd;}
</style>
<g>
	<path class="st0" d="M213.1,257.9C194.6,268.7,173,275,150,275c-69,0-125-56-125-125S81,25,150,25s125,56,125,125
		c0,23-6.2,44.6-17.1,63.1l12.3,12.3c4,4,5.6,9.8,4.3,15.3c-1.3,5.5-5.4,9.9-10.7,11.7l-8.5,2.8l-2.8,8.6
		c-1.8,5.4-6.2,9.4-11.7,10.7s-11.3-0.3-15.3-4.3L213.1,257.9z M249.9,205.2c9-16.4,14.2-35.2,14.2-55.2C264.1,87,213,35.8,150,35.8
		S35.9,87,35.9,150S87,264.1,150,264.1c20,0,38.8-5.2,55.2-14.2l-1.4-1.4c-3.1-3.1-4.8-7.2-4.8-11.5v-21.7
		c-13.6,10.2-30.6,16.3-48.9,16.3c-45,0-81.6-36.5-81.6-81.6c0-45,36.5-81.6,81.6-81.6s81.6,36.5,81.6,81.6
		c0,18.4-6.1,35.3-16.3,48.9H237c4.3,0,8.5,1.7,11.5,4.8L249.9,205.2z M233.1,262.5l-21.8-21.8c-1-1-1.6-2.4-1.6-3.8v-21.8
		c0-3,2.4-5.5,5.5-5.5H237c1.4,0,2.8,0.6,3.8,1.6l21.8,21.8c1.4,1.4,1.9,3.3,1.4,5.1s-1.8,3.3-3.6,3.9l-11.1,3.7
		c-1.6,0.6-2.9,1.8-3.4,3.4l-3.7,11.1c-0.6,1.8-2.1,3.1-3.9,3.6C236.4,264.4,234.5,263.9,233.1,262.5L233.1,262.5z M203.7,196
		c10.6-12.3,17-28.4,17-46c0-39-31.7-70.7-70.7-70.7S79.3,111,79.3,150s31.7,70.7,70.7,70.7c17.6,0,33.6-6.4,46-17.1l-23.2-23.1
		c-6.4,4.8-14.3,7.6-22.8,7.6c-21,0-38.1-17.1-38.1-38.1S129,112,150,112s38.1,17.1,38.1,38.1c0,8.5-2.8,16.4-7.6,22.8L203.7,196z
		 M172.7,165c2.8-4.3,4.5-9.5,4.5-15c0-15-12.2-27.2-27.2-27.2c-15,0-27.2,12.2-27.2,27.2c0,15,12.2,27.2,27.2,27.2
		c5.5,0,10.7-1.7,15-4.5l-18.9-18.9c-2.1-2.1-2.1-5.5,0-7.7c2.1-2.1,5.5-2.1,7.7,0L172.7,165z"/>
</g>
</svg>
